<?xml version="1.0" encoding="utf-8"?>
<!-- Generator: Adobe Illustrator 19.2.1, SVG Export Plug-In . SVG Version: 6.00 Build 0)  -->
<svg version="1.1" xmlns="http://www.w3.org/2000/svg" xmlns:xlink="http://www.w3.org/1999/xlink" x="0px" y="0px"
	 viewBox="0 0 1291.4 349.5" style="enable-background:new 0 0 1291.4 349.5;" xml:space="preserve">
<style type="text/css">
	.st0{fill:#49BDEA;}
	.st1{fill:#D6D6D6;}
	.st2{fill:#FFFFFF;}
	.st3{fill:#60BAE7;}
	.st4{opacity:0.7;fill:url(#SVGID_1_);}
	.st5{opacity:0.7;fill:url(#SVGID_2_);}
	.st6{opacity:0.7;fill:url(#SVGID_3_);}
	.st7{opacity:0.7;fill:url(#SVGID_4_);}
	.st8{opacity:0.7;fill:url(#SVGID_5_);}
	.st9{opacity:0.7;fill:url(#SVGID_6_);}
	.st10{opacity:0.7;fill:url(#SVGID_7_);}
	.st11{opacity:0.7;fill:url(#SVGID_8_);}
</style>
<g id="Capa_1">
	<g>
		<g>
			<path class="st2" d="M410,189.4c0-15.3,3.7-27,11.2-35.1c7.5-8.1,18.2-12.2,32.2-12.2c5,0,10.2,0.5,15.6,1.5v-36.1h22.6v99.8
				c0,8.6-3.3,16.1-9.8,22.3c-6.5,6.2-16.5,9.3-29.9,9.3c-3.1,0-6.2-0.2-9.3-0.7c-3.1-0.5-6.7-1.8-10.8-3.9
				c-4.1-2.1-7.7-4.8-10.8-8.1c-3.1-3.3-5.7-8.2-7.8-14.6C411,205.2,410,197.8,410,189.4z M432.6,188.2c0,11,1.4,19,4.3,23.9
				c2.9,4.9,7.9,7.4,15.1,7.4c11.4,0,17.1-3.4,17.1-10.1v-48.1c-4.4-1-9.4-1.5-14.9-1.6c-7,0-12.4,2.1-16.1,6.3
				C434.4,170.2,432.6,177.6,432.6,188.2z"/>
			<path class="st2" d="M513.4,191.5c0-15.1,3.4-27.1,10-36.1c6.7-9,17.3-13.5,31.9-13.5c13.8,0,24.2,4.4,31.3,13.1
				c7.1,8.8,10.6,19.5,10.6,32.3c0,5.3-0.1,9.2-0.4,11.7H536c0.6,8.1,3,13.6,7.3,16.3c4.2,2.8,9.8,4.1,16.6,4.1
				c11,0,21.7-2.4,32-7.3v18.2c-10.4,5.6-22.2,8.4-35.4,8.4c-4.2,0-8.1-0.3-11.8-1c-3.7-0.7-7.5-2.1-11.4-4.2
				c-3.9-2.1-7.3-4.9-10.2-8.2c-2.8-3.3-5.2-7.9-7-13.7C514.3,205.9,513.4,199.1,513.4,191.5z M536,183.4h37.8
				c-0.6-6.4-2.5-11.9-5.7-16.3c-3.2-4.4-7.6-6.7-13.3-6.7c-5.6,0-10,1.8-13.2,5.4C538.5,169.5,536.6,175.3,536,183.4z"/>
			<path class="st2" d="M607,143.5h24.1l23.5,71.3l23.5-71.3h24.2l-35.9,93.9h-23.5L607,143.5z"/>
			<path class="st2" d="M725.4,226.4c-7.6-8.3-11.5-20.3-11.5-35.8c0-15.6,3.8-27.5,11.5-35.8c7.7-8.3,18.6-12.5,32.9-12.5
				s25.3,4.2,32.9,12.5c7.7,8.3,11.5,20.3,11.5,35.8c0,15.5-3.8,27.5-11.5,35.8c-7.7,8.3-18.6,12.5-32.9,12.5
				S733.1,234.7,725.4,226.4z M741.9,166.9c-3.6,4.1-5.4,12-5.4,23.7c0,11.7,1.8,19.5,5.4,23.6c3.6,4.1,9.1,6.1,16.5,6.1
				c7.4,0,12.9-2,16.5-6.1c3.5-4.1,5.3-11.9,5.3-23.6c0-11.7-1.8-19.5-5.3-23.7c-3.6-4.1-9-6.1-16.5-6.1
				C751,160.8,745.5,162.9,741.9,166.9z"/>
			<path class="st2" d="M824.1,237.4v-85c13.8-6.9,28.1-10.3,43.1-10.3c13.1,0,23.3,3.4,30.7,10.3c7.4,6.8,11.1,16.4,11.1,28.7v56.4
				h-22.6v-58.3c0-2.5-0.2-4.6-0.7-6.3c-0.5-1.7-1.4-3.5-2.8-5.3c-1.4-1.8-3.6-3.2-6.8-4.1c-3.1-0.9-7.1-1.4-12-1.4
				c-5.5,0-11.3,0.6-17.4,1.7v73.7H824.1z"/>
			<path class="st2" d="M933.1,155.9v-12.4h16.2v-5.1c0-6.5,0.8-12.1,2.5-16.7c1.7-4.6,3.6-8.1,5.7-10.3c2.1-2.2,4.9-3.9,8.2-5.2
				c3.3-1.2,5.9-1.9,7.6-2.1c1.7-0.1,3.8-0.2,6.2-0.2c3.4,0,6.4,0.4,9,1.1v12c-2.5-0.5-4.8-0.7-6.8-0.7c-3,0-5.3,0.1-6.8,0.4
				c-1.6,0.2-3.5,1-5.6,2.2c-2.2,1.3-3.8,3.5-4.9,6.7c-1,3.2-1.5,7.4-1.5,12.5v5.2h25.7v12.4h-25.7v81.5h-13.6v-81.5H933.1z"/>
			<path class="st2" d="M1002.6,143.5h14.2l24,72.6l21.6-72.6h12.9l21.9,72.7l23.9-72.7h13.6l-31.3,93.9h-13l-21.8-71.3l-21.8,71.3
				h-13L1002.6,143.5z"/>
			<polygon class="st2" points="156.9,174.5 223.5,159.3 240.3,213.5 226.5,262.6 207.4,262.6 			"/>
			<polygon class="st2" points="156.9,174.5 223.5,159.3 262,135.9 275.9,86.9 207.4,86.9 			"/>
			<polygon class="st2" points="359.3,174.8 292.7,189.9 275.9,135.8 289.7,86.6 308.8,86.6 			"/>
			<polygon class="st2" points="359.3,174.8 292.7,189.9 254.1,213.6 240.3,262.3 308.8,262.3 			"/>
		</g>
		
			<linearGradient id="SVGID_1_" gradientUnits="userSpaceOnUse" x1="3431.9358" y1="-681.325" x2="3437.7834" y2="-581.8619" gradientTransform="matrix(-1 0 0 -1 3751.0083 -499.9077)">
			<stop  offset="0" style="stop-color:#3C3C3B;stop-opacity:0.2"/>
			<stop  offset="4.563826e-002" style="stop-color:#646464;stop-opacity:0.1909"/>
			<stop  offset="9.539109e-002" style="stop-color:#898988;stop-opacity:0.1809"/>
			<stop  offset="0.1513" style="stop-color:#A9A9A8;stop-opacity:0.1697"/>
			<stop  offset="0.2132" style="stop-color:#C4C4C4;stop-opacity:0.1574"/>
			<stop  offset="0.2831" style="stop-color:#DADADA;stop-opacity:0.1434"/>
			<stop  offset="0.3647" style="stop-color:#EBEBEB;stop-opacity:0.1271"/>
			<stop  offset="0.4656" style="stop-color:#F6F6F6;stop-opacity:0.1069"/>
			<stop  offset="0.6071" style="stop-color:#FDFDFD;stop-opacity:7.857338e-002"/>
			<stop  offset="1" style="stop-color:#FFFFFF;stop-opacity:0"/>
		</linearGradient>
		<polygon class="st4" points="275.8,135.9 289.6,86.7 308.7,86.7 359.3,174.9 292.6,190.1 		"/>
		
			<linearGradient id="SVGID_2_" gradientUnits="userSpaceOnUse" x1="-1026.8115" y1="-330.5899" x2="-1020.9638" y2="-231.1264" gradientTransform="matrix(1 0 0 1 1223.7461 498.75)">
			<stop  offset="0" style="stop-color:#3C3C3B;stop-opacity:0.2"/>
			<stop  offset="4.563826e-002" style="stop-color:#646464;stop-opacity:0.1909"/>
			<stop  offset="9.539109e-002" style="stop-color:#898988;stop-opacity:0.1809"/>
			<stop  offset="0.1513" style="stop-color:#A9A9A8;stop-opacity:0.1697"/>
			<stop  offset="0.2132" style="stop-color:#C4C4C4;stop-opacity:0.1574"/>
			<stop  offset="0.2831" style="stop-color:#DADADA;stop-opacity:0.1434"/>
			<stop  offset="0.3647" style="stop-color:#EBEBEB;stop-opacity:0.1271"/>
			<stop  offset="0.4656" style="stop-color:#F6F6F6;stop-opacity:0.1069"/>
			<stop  offset="0.6071" style="stop-color:#FDFDFD;stop-opacity:7.857338e-002"/>
			<stop  offset="1" style="stop-color:#FFFFFF;stop-opacity:0"/>
		</linearGradient>
		<polygon class="st5" points="240.2,213.6 226.4,262.8 207.3,262.8 156.7,174.6 223.4,159.5 		"/>
	</g>
</g>
<g id="Capa_2">
</g>
</svg>
